<svg width="40" height="40" viewBox="0 0 40 40" fill="none" xmlns="http://www.w3.org/2000/svg">
<g clip-path="url(#clip0_1083_1206)">
<path d="M28.2731 13.0017L23.2563 11.7413C23.1359 11.7112 23.0139 11.7057 22.8974 11.7253C22.781 11.7449 22.6723 11.7891 22.5776 11.8553C22.483 11.9216 22.4043 12.0086 22.3461 12.1114C22.2878 12.2141 22.2512 12.3306 22.2383 12.454C22.2245 12.5772 22.2346 12.7052 22.2681 12.8305C22.3016 12.9558 22.3578 13.076 22.4335 13.1841C22.5093 13.2922 22.603 13.3862 22.7093 13.4605C22.8155 13.5349 22.9323 13.5881 23.0528 13.6172L27.6582 14.7629L13.0419 24.9973C12.8517 25.1305 12.7298 25.3444 12.703 25.5922C12.6761 25.8399 12.7465 26.1012 12.8986 26.3184C13.0507 26.5357 13.2721 26.6912 13.5141 26.7506C13.7561 26.8101 13.9989 26.7688 14.189 26.6356L28.8483 16.3711L28.3297 21.1534C28.3093 21.3948 28.3801 21.6468 28.5275 21.8573C28.6749 22.0677 28.8875 22.2205 29.1213 22.2838C29.2417 22.314 29.3636 22.3194 29.4801 22.2998C29.5966 22.2802 29.7052 22.236 29.7999 22.1698C29.8945 22.1035 29.9732 22.0165 30.0314 21.9137C30.0897 21.811 30.1263 21.6945 30.1392 21.5711L30.7051 16.4749C30.7851 15.7321 30.574 14.9491 30.118 14.2979C29.662 13.6467 28.9985 13.1805 28.2731 13.0017Z" fill="black" fill-opacity="0.58"/>
</g>
<defs>
<clipPath id="clip0_1083_1206">
<rect width="24" height="24" fill="white" transform="translate(8 8)"/>
</clipPath>
</defs>
</svg>
