<svg width="40" height="40" viewBox="0 0 40 40" fill="none" xmlns="http://www.w3.org/2000/svg">
<path d="M11.4387 10.0786C11.2718 9.78058 11.0448 9.52251 10.7729 9.32167C10.5009 9.12084 10.1903 8.98187 9.86179 8.91405C9.53328 8.84624 9.19443 8.85114 8.86791 8.92844C8.54139 9.00574 8.23473 9.15365 7.96842 9.36228C7.70212 9.57091 7.48231 9.83545 7.3237 10.1382C7.1651 10.441 7.07134 10.775 7.04871 11.1179C7.02608 11.4608 7.07509 11.8047 7.19247 12.1266C7.30985 12.4486 7.49289 12.7411 7.72935 12.9846L15.418 23.3094L17.21 25.6253L11.95 18.5614C11.7833 18.2631 11.5564 18.0047 11.2845 17.8037C11.0125 17.6026 10.7019 17.4634 10.3732 17.3954C10.0446 17.3274 9.70565 17.3322 9.37898 17.4094C9.05231 17.4867 8.7455 17.6346 8.47907 17.8432C8.21263 18.0519 7.99273 18.3166 7.83408 18.6194C7.67542 18.9223 7.58168 19.2565 7.55911 19.5995C7.53654 19.9426 7.58567 20.2866 7.70321 20.6086C7.82076 20.9306 8.004 21.2232 8.24069 21.4667L13.5014 28.5306L17.6814 33.9316C21.3267 38.2209 27.358 37.9863 31.5394 34.2496C33.942 32.0831 35.4872 29.0885 35.8827 25.8325C36.14 22.9381 36.4207 15.3703 36.4207 15.3703C36.2994 13.5918 34.3307 12.2769 34.0774 13.1959L30.8147 19.8673L28.5707 16.9798L19.594 5.21367C19.4274 4.91509 19.2006 4.65647 18.9286 4.45513C18.6567 4.25379 18.3459 4.11439 18.0171 4.04625C17.6884 3.97811 17.3492 3.98282 17.0224 4.06005C16.6955 4.13728 16.3886 4.28526 16.122 4.49407C15.8555 4.70287 15.6355 4.96769 15.4768 5.27078C15.3182 5.57387 15.2245 5.90823 15.2021 6.25147C15.1797 6.59471 15.2291 6.93889 15.3469 7.26097C15.4647 7.58304 15.6483 7.87558 15.8854 8.11897L18.718 11.9227L23 17.721L14.054 5.63213C13.8876 5.33331 13.6608 5.07443 13.3889 4.87284C13.1169 4.67126 12.8061 4.53163 12.4773 4.46332C12.1484 4.39501 11.8091 4.39959 11.4821 4.47676C11.1551 4.55393 10.848 4.70191 10.5813 4.91076C10.3147 5.11962 10.0946 5.38454 9.9359 5.68775C9.77721 5.99096 9.68355 6.32547 9.6612 6.66884C9.63886 7.01221 9.68834 7.35652 9.80634 7.67867C9.92433 8.00083 10.1081 8.29339 10.3454 8.53675L20.126 21.5385" fill="#6A462F"/>
<path d="M11.4386 10.0786C11.2717 9.78058 11.0447 9.52251 10.7727 9.32167C10.5008 9.12084 10.1902 8.98187 9.86167 8.91405C9.53316 8.84624 9.19431 8.85114 8.86779 8.92844C8.54127 9.00574 8.2346 9.15365 7.9683 9.36228C7.70199 9.57091 7.48219 9.83545 7.32358 10.1382C7.16497 10.441 7.07122 10.775 7.04859 11.1179C7.02596 11.4608 7.07497 11.8047 7.19235 12.1266C7.30973 12.4486 7.49277 12.7411 7.72923 12.9846L15.4179 23.3094L17.2099 25.6253L11.9499 18.5614C11.7832 18.2631 11.5563 18.0047 11.2843 17.8037C11.0124 17.6026 10.7017 17.4634 10.3731 17.3954C10.0445 17.3274 9.70552 17.3322 9.37886 17.4094C9.05219 17.4867 8.74537 17.6346 8.47894 17.8432C8.21251 18.0519 7.99261 18.3166 7.83396 18.6194C7.6753 18.9223 7.58155 19.2565 7.55899 19.5995C7.53642 19.9426 7.58555 20.2866 7.70309 20.6086C7.82064 20.9306 8.00388 21.2232 8.24056 21.4667L13.5012 28.5306L17.6812 33.9316C21.3266 38.2209 27.3579 37.9863 31.5392 34.2496C33.9419 32.0831 35.4871 29.0885 35.8826 25.8325C36.1399 22.9381 36.4206 15.3703 36.4206 15.3703C36.2992 13.5918 34.3306 12.2769 34.0772 13.1959L30.8146 19.8673L28.5706 16.9798L19.5939 5.21367C19.4273 4.91509 19.2005 4.65647 18.9285 4.45513C18.6565 4.25379 18.3458 4.11439 18.017 4.04625C17.6883 3.97811 17.3491 3.98282 17.0223 4.06005C16.6954 4.13728 16.3884 4.28526 16.1219 4.49407C15.8553 4.70287 15.6354 4.96769 15.4767 5.27078C15.3181 5.57387 15.2244 5.90823 15.202 6.25147C15.1796 6.59471 15.229 6.93889 15.3468 7.26097C15.4646 7.58304 15.6482 7.87558 15.8852 8.11897L18.7179 11.9227L22.9999 17.721L14.0539 5.63213C13.8875 5.33331 13.6607 5.07443 13.3887 4.87284C13.1168 4.67126 12.806 4.53163 12.4771 4.46332C12.1483 4.39501 11.809 4.39959 11.482 4.47676C11.155 4.55393 10.8479 4.70191 10.5812 4.91076C10.3145 5.11962 10.0945 5.38454 9.93578 5.68775C9.77709 5.99096 9.68343 6.32547 9.66108 6.66884C9.63874 7.01221 9.68822 7.35652 9.80621 7.67867C9.92421 8.00083 10.108 8.29339 10.3452 8.53675L20.1259 21.5385" stroke="black" stroke-width="0.5" stroke-linecap="round" stroke-linejoin="round"/>
<path d="M6.78194 26.2373C6.78194 27.9918 7.94661 29.412 9.38528 29.412M3.70728 25.9398C3.70728 29.7661 6.24728 32.8622 9.38528 32.8622M29.1746 11.4448C29.1746 9.68957 28.0099 8.27008 26.5706 8.27008M32.2486 11.7422C32.2486 7.91589 29.7086 4.81982 26.5706 4.81982" stroke="black" stroke-width="0.5" stroke-miterlimit="10" stroke-linecap="round" stroke-linejoin="round"/>
</svg>
