<svg width="39" height="40" viewBox="0 0 39 40" fill="none" xmlns="http://www.w3.org/2000/svg">
<path d="M9.68704 11.1043C9.51577 10.8062 9.2828 10.5481 9.0037 10.3473C8.72461 10.1465 8.40582 10.0075 8.06866 9.93969C7.73149 9.87187 7.38373 9.87678 7.04862 9.95408C6.7135 10.0314 6.39877 10.1793 6.12546 10.3879C5.85214 10.5965 5.62655 10.8611 5.46377 11.1638C5.30099 11.4666 5.20477 11.8006 5.18154 12.1435C5.15831 12.4864 5.20862 12.8304 5.32908 13.1523C5.44955 13.4742 5.63741 13.7667 5.8801 14.0102L13.7711 24.335L15.6103 26.6509L10.2118 19.587C10.0407 19.2887 9.80784 19.0304 9.52875 18.8293C9.24967 18.6282 8.93083 18.489 8.59356 18.421C8.2563 18.353 7.9084 18.3578 7.57313 18.4351C7.23787 18.5123 6.92298 18.6602 6.64954 18.8689C6.3761 19.0776 6.15041 19.3422 5.98758 19.6451C5.82475 19.948 5.72853 20.2821 5.70537 20.6252C5.68221 20.9682 5.73263 21.3123 5.85327 21.6343C5.97391 21.9563 6.16197 22.2488 6.40489 22.4923L11.804 29.5562L16.094 34.9573C19.8353 39.2465 26.0253 39.012 30.3167 35.2752C32.7826 33.1087 34.3685 30.1142 34.7743 26.8581C35.0384 23.9637 35.3265 16.3959 35.3265 16.3959C35.2019 14.6174 33.1815 13.3026 32.9215 14.2215L29.5729 20.893L27.2699 18.0055L18.057 6.2393C17.886 5.94073 17.6532 5.68211 17.3741 5.48077C17.095 5.27943 16.776 5.14002 16.4386 5.07188C16.1012 5.00374 15.7531 5.00845 15.4177 5.08568C15.0822 5.16291 14.7672 5.31089 14.4936 5.5197C14.22 5.72851 13.9943 5.99333 13.8315 6.29642C13.6687 6.59951 13.5725 6.93387 13.5495 7.2771C13.5265 7.62034 13.5772 7.96452 13.6981 8.2866C13.8191 8.60868 14.0075 8.90121 14.2507 9.1446L17.1579 12.9484L21.5526 18.7467L12.3712 6.65777C12.2004 6.35894 11.9676 6.10006 11.6885 5.89848C11.4094 5.6969 11.0905 5.55727 10.7529 5.48896C10.4154 5.42064 10.0672 5.42523 9.73161 5.5024C9.39602 5.57957 9.08081 5.72754 8.80712 5.9364C8.53343 6.14526 8.30758 6.41017 8.14471 6.71338C7.98184 7.0166 7.88572 7.3511 7.86279 7.69448C7.83985 8.03785 7.89064 8.38215 8.01174 8.70431C8.13284 9.02646 8.32145 9.31903 8.56494 9.56238L18.603 22.5641" fill="#A57939"/>
<path d="M9.68704 11.1043C9.51577 10.8062 9.2828 10.5481 9.0037 10.3473C8.72461 10.1465 8.40582 10.0075 8.06866 9.93969C7.73149 9.87187 7.38373 9.87678 7.04862 9.95408C6.7135 10.0314 6.39877 10.1793 6.12546 10.3879C5.85214 10.5965 5.62655 10.8611 5.46377 11.1638C5.30099 11.4666 5.20477 11.8006 5.18154 12.1435C5.15831 12.4864 5.20862 12.8304 5.32908 13.1523C5.44955 13.4742 5.63741 13.7667 5.8801 14.0102L13.7711 24.335L15.6103 26.6509L10.2118 19.587C10.0407 19.2887 9.80784 19.0304 9.52875 18.8293C9.24967 18.6282 8.93083 18.489 8.59356 18.421C8.2563 18.353 7.9084 18.3578 7.57313 18.4351C7.23787 18.5123 6.92298 18.6602 6.64954 18.8689C6.3761 19.0776 6.15041 19.3422 5.98758 19.6451C5.82475 19.948 5.72853 20.2821 5.70537 20.6252C5.68221 20.9682 5.73263 21.3123 5.85327 21.6343C5.97391 21.9563 6.16197 22.2488 6.40489 22.4923L11.804 29.5562L16.094 34.9573C19.8353 39.2465 26.0253 39.012 30.3167 35.2752C32.7826 33.1087 34.3685 30.1142 34.7743 26.8581C35.0384 23.9637 35.3265 16.3959 35.3265 16.3959C35.2019 14.6174 33.1815 13.3026 32.9215 14.2215L29.5729 20.893L27.2699 18.0055L18.057 6.2393C17.886 5.94073 17.6532 5.68211 17.3741 5.48077C17.095 5.27943 16.776 5.14002 16.4386 5.07188C16.1012 5.00374 15.7531 5.00845 15.4177 5.08568C15.0822 5.16291 14.7672 5.31089 14.4936 5.5197C14.22 5.72851 13.9943 5.99333 13.8315 6.29642C13.6687 6.59951 13.5725 6.93387 13.5495 7.2771C13.5265 7.62034 13.5772 7.96452 13.6981 8.2866C13.8191 8.60868 14.0075 8.90121 14.2507 9.1446L17.1579 12.9484L21.5526 18.7467L12.3712 6.65777C12.2004 6.35894 11.9676 6.10006 11.6885 5.89848C11.4094 5.6969 11.0905 5.55727 10.7529 5.48896C10.4154 5.42064 10.0672 5.42523 9.73161 5.5024C9.39602 5.57957 9.08081 5.72754 8.80712 5.9364C8.53343 6.14526 8.30758 6.41017 8.14471 6.71338C7.98184 7.0166 7.88572 7.3511 7.86279 7.69448C7.83985 8.03785 7.89064 8.38215 8.01174 8.70431C8.13284 9.02646 8.32145 9.31903 8.56494 9.56238L18.603 22.5641" stroke="black" stroke-width="0.5" stroke-linecap="round" stroke-linejoin="round"/>
<path d="M4.90778 27.2629C4.90778 29.0174 6.10309 30.4376 7.57962 30.4376M1.7522 26.9655C1.7522 30.7918 4.35904 33.8879 7.57962 33.8879M27.8897 12.4704C27.8897 10.7152 26.6944 9.29571 25.2172 9.29571M31.0446 12.7679C31.0446 8.94153 28.4378 5.84546 25.2172 5.84546" stroke="black" stroke-width="0.5" stroke-miterlimit="10" stroke-linecap="round" stroke-linejoin="round"/>
</svg>
