<svg width="48" height="48" viewBox="0 0 48 48" fill="none" xmlns="http://www.w3.org/2000/svg">
<path d="M12.4387 12.8266C12.2718 12.536 12.0448 12.2844 11.7729 12.0886C11.5009 11.8928 11.1903 11.7573 10.8618 11.6912C10.5333 11.6251 10.1944 11.6299 9.86791 11.7052C9.54139 11.7806 9.23473 11.9248 8.96842 12.1282C8.70212 12.3316 8.48231 12.5896 8.3237 12.8847C8.1651 13.1799 8.07134 13.5056 8.04871 13.8399C8.02608 14.1743 8.07509 14.5096 8.19247 14.8235C8.30985 15.1373 8.49289 15.4225 8.72935 15.66L16.418 25.7266L18.21 27.9846L12.95 21.0973C12.7833 20.8065 12.5564 20.5546 12.2845 20.3585C12.0125 20.1625 11.7019 20.0268 11.3732 19.9605C11.0446 19.8942 10.7056 19.8989 10.379 19.9742C10.0523 20.0495 9.7455 20.1937 9.47907 20.3971C9.21263 20.6006 8.99273 20.8586 8.83408 21.1539C8.67542 21.4493 8.58168 21.7751 8.55911 22.1095C8.53654 22.444 8.58567 22.7794 8.70321 23.0934C8.82076 23.4073 9.004 23.6926 9.24069 23.93L14.5014 30.8173L18.6814 36.0833C22.3267 40.2653 28.358 40.0366 32.5394 36.3933C34.942 34.281 36.4872 31.3613 36.8827 28.1866C37.14 25.3646 37.4207 17.986 37.4207 17.986C37.2994 16.252 35.3307 14.97 35.0774 15.866L31.8147 22.3706L29.5707 19.5553L20.594 8.08331C20.4274 7.7922 20.2006 7.54004 19.9286 7.34374C19.6567 7.14743 19.3459 7.01151 19.0171 6.94508C18.6884 6.87864 18.3492 6.88323 18.0224 6.95853C17.6955 7.03383 17.3886 7.17811 17.122 7.3817C16.8555 7.58529 16.6355 7.84349 16.4768 8.139C16.3182 8.43451 16.2245 8.76051 16.2021 9.09517C16.1797 9.42982 16.2291 9.7654 16.3469 10.0794C16.4647 10.3935 16.6483 10.6787 16.8854 10.916L19.718 14.6246L24 20.278L15.054 8.49131C14.8876 8.19996 14.6608 7.94755 14.3889 7.75101C14.1169 7.55446 13.8061 7.41833 13.4773 7.35172C13.1484 7.28512 12.8091 7.28959 12.4821 7.36483C12.1551 7.44007 11.848 7.58434 11.5813 7.78798C11.3147 7.99161 11.0946 8.24991 10.9359 8.54554C10.7772 8.84117 10.6836 9.16732 10.6612 9.50211C10.6389 9.83689 10.6883 10.1726 10.8063 10.4867C10.9243 10.8008 11.1081 11.086 11.3454 11.3233L21.126 24" fill="#A57939"/>
<path d="M12.4386 12.8266C12.2717 12.536 12.0447 12.2844 11.7727 12.0886C11.5008 11.8928 11.1902 11.7573 10.8617 11.6912C10.5332 11.6251 10.1943 11.6299 9.86779 11.7052C9.54127 11.7806 9.2346 11.9248 8.9683 12.1282C8.70199 12.3316 8.48219 12.5896 8.32358 12.8847C8.16497 13.1799 8.07122 13.5056 8.04859 13.8399C8.02596 14.1743 8.07497 14.5096 8.19235 14.8235C8.30973 15.1373 8.49277 15.4225 8.72923 15.66L16.4179 25.7266L18.2099 27.9846L12.9499 21.0973C12.7832 20.8065 12.5563 20.5546 12.2843 20.3585C12.0124 20.1625 11.7017 20.0268 11.3731 19.9605C11.0445 19.8942 10.7055 19.8989 10.3789 19.9742C10.0522 20.0495 9.74537 20.1937 9.47894 20.3971C9.21251 20.6006 8.99261 20.8586 8.83396 21.1539C8.6753 21.4493 8.58155 21.7751 8.55899 22.1095C8.53642 22.444 8.58555 22.7794 8.70309 23.0934C8.82064 23.4073 9.00388 23.6926 9.24056 23.93L14.5012 30.8173L18.6812 36.0833C22.3266 40.2653 28.3579 40.0366 32.5392 36.3933C34.9419 34.281 36.4871 31.3613 36.8826 28.1866C37.1399 25.3646 37.4206 17.986 37.4206 17.986C37.2992 16.252 35.3306 14.97 35.0772 15.866L31.8146 22.3706L29.5706 19.5553L20.5939 8.08331C20.4273 7.7922 20.2005 7.54004 19.9285 7.34374C19.6565 7.14743 19.3458 7.01151 19.017 6.94508C18.6883 6.87864 18.3491 6.88323 18.0223 6.95853C17.6954 7.03383 17.3884 7.17811 17.1219 7.3817C16.8553 7.58529 16.6354 7.84349 16.4767 8.139C16.3181 8.43451 16.2244 8.76051 16.202 9.09517C16.1796 9.42982 16.229 9.7654 16.3468 10.0794C16.4646 10.3935 16.6482 10.6787 16.8852 10.916L19.7179 14.6246L23.9999 20.278L15.0539 8.49131C14.8875 8.19996 14.6607 7.94755 14.3887 7.75101C14.1168 7.55446 13.806 7.41833 13.4771 7.35172C13.1483 7.28512 12.809 7.28959 12.482 7.36483C12.155 7.44007 11.8479 7.58434 11.5812 7.78798C11.3145 7.99161 11.0945 8.24991 10.9358 8.54554C10.7771 8.84117 10.6834 9.16732 10.6611 9.50211C10.6387 9.83689 10.6882 10.1726 10.8062 10.4867C10.9242 10.8008 11.108 11.086 11.3452 11.3233L21.1259 24" stroke="black" stroke-width="0.5" stroke-linecap="round" stroke-linejoin="round"/>
<path d="M7.78194 28.5813C7.78194 30.292 8.94661 31.6767 10.3853 31.6767M4.70728 28.2913C4.70728 32.022 7.24728 35.0407 10.3853 35.0407M30.1746 14.1587C30.1746 12.4473 29.0099 11.0633 27.5706 11.0633M33.2486 14.4487C33.2486 10.718 30.7086 7.69934 27.5706 7.69934" stroke="black" stroke-width="0.5" stroke-miterlimit="10" stroke-linecap="round" stroke-linejoin="round"/>
</svg>
