<svg width="18" height="18" viewBox="0 0 18 18" fill="none" xmlns="http://www.w3.org/2000/svg">
<path d="M4.66449 4.80999C4.60191 4.70102 4.51679 4.60666 4.41481 4.53323C4.31283 4.4598 4.19635 4.40899 4.07316 4.38419C3.94996 4.3594 3.8229 4.36119 3.70045 4.38946C3.57801 4.41772 3.46301 4.4718 3.36314 4.54808C3.26328 4.62436 3.18085 4.72108 3.12137 4.83178C3.0619 4.94248 3.02674 5.0646 3.01825 5.18997C3.00976 5.31535 3.02814 5.4411 3.07216 5.5588C3.11618 5.6765 3.18482 5.78345 3.27349 5.87249L6.15674 9.64749L6.82874 10.4942L4.85624 7.91149C4.79372 7.80243 4.70863 7.70797 4.60666 7.63445C4.50468 7.56093 4.38818 7.51004 4.26495 7.48518C4.14172 7.46032 4.0146 7.46207 3.8921 7.49031C3.7696 7.51855 3.65455 7.57263 3.55463 7.64893C3.45472 7.72523 3.37226 7.82199 3.31276 7.93273C3.25327 8.04347 3.21811 8.16565 3.20965 8.29107C3.20119 8.4165 3.21961 8.54229 3.26369 8.66002C3.30777 8.77775 3.37649 8.88471 3.46524 8.97374L5.43799 11.5565L7.00549 13.5312C8.37249 15.0995 10.6342 15.0137 12.2022 13.6475C13.1032 12.8554 13.6827 11.7605 13.831 10.57C13.9275 9.51174 14.0327 6.74474 14.0327 6.74474C13.9872 6.09449 13.249 5.61374 13.154 5.94974L11.9305 8.38899L11.089 7.33324L7.72274 3.03124C7.66027 2.92207 7.5752 2.82752 7.47322 2.7539C7.37123 2.68029 7.25469 2.62932 7.13141 2.6044C7.00812 2.57949 6.88094 2.58121 6.75837 2.60945C6.63581 2.63769 6.52069 2.69179 6.42074 2.76814C6.32078 2.84448 6.23829 2.94131 6.1788 3.05212C6.11931 3.16294 6.08419 3.28519 6.07578 3.41069C6.06738 3.53618 6.08589 3.66203 6.13008 3.77979C6.17427 3.89754 6.24311 4.0045 6.33199 4.09349L7.39424 5.48424L8.99999 7.60424L5.64524 3.18424C5.58283 3.07499 5.49779 2.98033 5.39581 2.90663C5.29383 2.83292 5.17728 2.78187 5.05395 2.7569C4.93063 2.73192 4.8034 2.7336 4.68078 2.76181C4.55816 2.79003 4.44298 2.84413 4.34298 2.92049C4.24298 2.99686 4.16046 3.09372 4.10095 3.20458C4.04144 3.31544 4.00632 3.43774 3.99794 3.56329C3.98956 3.68883 4.00811 3.81472 4.05236 3.93251C4.09661 4.0503 4.16553 4.15727 4.25449 4.24624L7.92224 8.99999" fill="#6A462F"/>
<path d="M4.66449 4.80999C4.60191 4.70102 4.51679 4.60666 4.41481 4.53323C4.31283 4.4598 4.19635 4.40899 4.07316 4.38419C3.94996 4.3594 3.8229 4.36119 3.70045 4.38946C3.57801 4.41772 3.46301 4.4718 3.36314 4.54808C3.26328 4.62436 3.18085 4.72108 3.12137 4.83178C3.0619 4.94248 3.02674 5.0646 3.01825 5.18997C3.00976 5.31535 3.02814 5.4411 3.07216 5.5588C3.11618 5.6765 3.18482 5.78345 3.27349 5.87249L6.15674 9.64749L6.82874 10.4942L4.85624 7.91149C4.79372 7.80243 4.70863 7.70797 4.60666 7.63445C4.50468 7.56093 4.38818 7.51004 4.26495 7.48518C4.14172 7.46032 4.0146 7.46207 3.8921 7.49031C3.7696 7.51855 3.65455 7.57263 3.55463 7.64893C3.45472 7.72523 3.37226 7.82199 3.31276 7.93273C3.25327 8.04347 3.21811 8.16565 3.20965 8.29107C3.20119 8.4165 3.21961 8.54229 3.26369 8.66002C3.30777 8.77775 3.37649 8.88471 3.46524 8.97374L5.43799 11.5565L7.00549 13.5312C8.37249 15.0995 10.6342 15.0137 12.2022 13.6475C13.1032 12.8554 13.6827 11.7605 13.831 10.57C13.9275 9.51174 14.0327 6.74474 14.0327 6.74474C13.9872 6.09449 13.249 5.61374 13.154 5.94974L11.9305 8.38899L11.089 7.33324L7.72274 3.03124C7.66027 2.92207 7.5752 2.82752 7.47322 2.7539C7.37123 2.68029 7.25469 2.62932 7.13141 2.6044C7.00812 2.57949 6.88094 2.58121 6.75837 2.60945C6.63581 2.63769 6.52069 2.69179 6.42074 2.76814C6.32078 2.84448 6.23829 2.94131 6.1788 3.05212C6.11931 3.16294 6.08419 3.28519 6.07578 3.41069C6.06738 3.53618 6.08589 3.66203 6.13008 3.77979C6.17427 3.89754 6.24311 4.0045 6.33199 4.09349L7.39424 5.48424L8.99999 7.60424L5.64524 3.18424C5.58283 3.07499 5.49779 2.98033 5.39581 2.90663C5.29383 2.83292 5.17728 2.78187 5.05395 2.7569C4.93063 2.73192 4.8034 2.7336 4.68078 2.76181C4.55816 2.79003 4.44298 2.84413 4.34298 2.92049C4.24298 2.99686 4.16046 3.09372 4.10095 3.20458C4.04144 3.31544 4.00632 3.43774 3.99794 3.56329C3.98956 3.68883 4.00811 3.81472 4.05236 3.93251C4.09661 4.0503 4.16553 4.15727 4.25449 4.24624L7.92224 8.99999" stroke="black" stroke-width="0.5" stroke-linecap="round" stroke-linejoin="round"/>
<path d="M2.91826 10.718C2.91826 11.3595 3.35501 11.8787 3.89451 11.8787M1.76526 10.6092C1.76526 12.0082 2.71776 13.1402 3.89451 13.1402M11.3155 5.30946C11.3155 4.66771 10.8788 4.14871 10.339 4.14871M12.4683 5.41821C12.4683 4.01921 11.5158 2.88721 10.339 2.88721" stroke="black" stroke-width="0.5" stroke-miterlimit="10" stroke-linecap="round" stroke-linejoin="round"/>
</svg>
